<?xml version="1.0" standalone="no"?>
<!DOCTYPE svg PUBLIC "-//W3C//DTD SVG 1.1//EN" "http://www.w3.org/Graphics/SVG/1.1/DTD/svg11.dtd" >
<!--
2013-9-30: Created.
-->
<svg>
<metadata>
Created by iconfont
</metadata>
<defs>

<font id="trv-ifont" horiz-adv-x="1024" >
  <font-face
    font-family="trv-ifont"
    font-weight="500"
    font-stretch="normal"
    units-per-em="1024"
    ascent="896"
    descent="-128"
  />
    <missing-glyph />
    
    <glyph glyph-name="x" unicode="x" horiz-adv-x="1001"
d="M281 543q-27 -1 -53 -1h-83q-18 0 -36.5 -6t-32.5 -18.5t-23 -32t-9 -45.5v-76h912v41q0 16 -0.5 30t-0.5 18q0 13 -5 29t-17 29.5t-31.5 22.5t-49.5 9h-133v-97h-438v97zM955 310v-52q0 -23 0.5 -52t0.5 -58t-10.5 -47.5t-26 -30t-33 -16t-31.5 -4.5q-14 -1 -29.5 -0.5
t-29.5 0.5h-32l-45 128h-439l-44 -128h-29h-34q-20 0 -45 1q-25 0 -41 9.5t-25.5 23t-13.5 29.5t-4 30v167h911zM163 247q-12 0 -21 -8.5t-9 -21.5t9 -21.5t21 -8.5q13 0 22 8.5t9 21.5t-9 21.5t-22 8.5zM316 123q-8 -26 -14 -48q-5 -19 -10.5 -37t-7.5 -25t-3 -15t1 -14.5
t9.5 -10.5t21.5 -4h37h67h81h80h64h36q23 0 34 12t2 38q-5 13 -9.5 30.5t-9.5 34.5q-5 19 -11 39h-368zM336 498v228q0 11 2.5 23t10 21.5t20.5 15.5t34 6h188q31 0 51.5 -14.5t20.5 -52.5v-227h-327z" />
    

    
    <glyph glyph-name="dubbo" unicode="&#59304;" d="M951.703 395.838c-2.329 97.802-50.064 135.059-90.815 147.866s-125.744-4.657-172.316-13.972-202.587-3.493-271.28 30.272-187.451 4.657-187.451 4.657-193.274-58.214-146.702-253.817c74.515-222.38 394.697-196.766 587.969-168.822s282.924 156.016 280.595 253.817zM892.906 336.458c-27.361-64.036-117.594-129.82-281.759-149.029s-241.591 0-260.22 6.986-192.109 44.825-196.766 175.227c3.493 64.036 26.779 86.739 26.779 86.739s35.511 71.022 99.548 57.633 183.377-58.797 230.531-68.111 171.151-4.076 215.977 13.972 107.115 23.869 141.462-1.746 51.811-57.633 24.45-121.668zM276.054 393.246h42.711c20.272 0 34.587-0.258 42.943-3.1 8.356-2.844 12.534-11.123 12.534-20.178v-51.017c0-7.035-3.637-12.646-10.91-16.838-7.276-4.191-19.423-6.286-36.444-6.286h-50.836v97.419zM343.683 322.262c3.98 1.036 5.972 3.67 5.972 7.908v29.458c0 3.516-1.738 5.791-5.212 6.828s-21.214 1.6-25.264 1.69c-0.868 0-1.703 0-2.497 0-0.798 0-14.437 0-15.306 0v-47.44c6.368 0 38.325 0.517 42.308 1.555zM411.626 392.857v-67.248c0-2.346 1.087-3.028 3.258-4.381s16.204-0.909 18.811-0.997c0.142 0 0.251 0 0.326 0 0.070 0 0.18 0 0.325 0 0.289 0 0.578 0 0.868 0 0.289 0 0.507 0.045 0.652 0.135 2.606 0.18 16.639-0.174 18.811 1.268 2.171 1.44 3.258 2.304 3.258 4.919v66.302h26.080v-62.515c0-10.817-6.313-26.358-14.272-30.325-7.963-3.966-18.75-4.784-32.356-4.784-16.215 0-28.447 0.817-36.699 4.784-8.251 3.965-14.706 18.562-14.706 27.484v65.356h25.645zM492.708 393.551h52.257c11.855 0 22.572-1.683 32.144-5.040 9.575-3.36 14.364-11.579 14.364-20 0-5.394 0.799-12.288-2.012-15.315-2.815-3.030-3.441-2.525-6.782-3.847-1.367-0.476-2.736-0.877-4.103-1.207-1.367-0.332-2.587-0.546-3.648-0.639 8.055-2.461 9.211-5.277 12.784-8.446 3.569-3.171 5.357-8.069 5.357-14.691 0-8.896-3.573-16.898-10.715-21.676-7.147-4.78-19.076-7.168-35.794-7.168h-53.853v98.031zM563.859 354.821c3.399 1.441 5.103 4.596 5.103 9.465 0 2.343-1.052 5.356-3.148 6.707-2.1 1.353-5.031 2.029-8.795 2.029h-40.185v-19.198c8.54 0 43.621-0.445 47.024 0.997zM561.886 316.642c4.415 1.171 6.623 4.37 6.623 9.599 0 4.867-2.389 5.581-7.165 6.797-4.779 1.217-36.691-0.278-44.51 0.172v-15.998c8.541 0 40.635-1.743 45.053-0.57zM601.278 393.551h52.257c11.855 0 22.572-1.683 32.144-5.040 9.575-3.36 14.364-11.579 14.364-20 0-5.394 0.726-12.288-2.084-15.315-2.815-3.030-3.366-2.525-6.708-3.847-1.367-0.476-2.736-0.877-4.103-1.207-1.367-0.332-2.587-0.546-3.648-0.639 8.055-2.461 9.211-5.277 12.784-8.446 3.569-3.171 5.357-8.069 5.357-14.691 0-8.896-3.573-16.898-10.715-21.676-7.147-4.779-19.075-7.167-35.792-7.167h-53.853v98.030zM672.428 354.821c3.399 1.441 5.103 4.596 5.103 9.465 0 2.343-1.052 5.356-3.148 6.707-2.1 1.353-5.031 2.029-8.795 2.029h-40.185v-19.198c8.54 0 43.621-0.445 47.024 0.997zM670.456 316.642c4.415 1.171 6.623 4.37 6.623 9.599 0 4.867-2.389 5.581-7.165 6.797-4.779 1.217-36.691-0.278-44.51 0.172v-15.998c8.541 0 40.635-1.743 45.053-0.57zM713.050 367.95c0 9.012 4.631 16.555 13.898 20.295 9.262 3.74 20.483 5.611 33.658 5.611 1.738 0 3.509-0.047 5.319-0.135 1.809-0.091 3.583-0.181 5.319-0.269 9.263-0.812 17.698-3.021 25.298-6.625 7.599-3.606 11.401-10.676 11.401-18.877v-40.155c0-8.924-3.802-17.165-11.401-22.391-7.599-5.229-14.265-10.172-31.636-10.172-17.664 0-35.571 1.788-42.085 7.692-6.515 5.902-9.773 17.299-9.773 24.87v40.155zM738.697 324.226c0-2.525 1.265-5.604 3.801-6.911 2.531-1.308 16.964-0.797 20.004-0.797 0.142 0 0.252 0 0.326 0 0.070 0 0.18 0 0.325 0 2.895 0.089 14.886-0.399 17.35 0.864 2.459 1.261 3.691 4.318 3.691 6.843v37.683c0 2.522-1.232 5.58-3.691 6.843-2.463 1.261-14.455 0.772-17.35 0.864-0.146 0-0.255 0-0.325 0-0.074 0-0.185 0-0.326 0-3.040 0-17.474 0.532-20.004-0.73-2.535-1.263-3.801-4.365-3.801-6.978v-37.682z"  horiz-adv-x="1024" />

    
    <glyph glyph-name="zuzhi" unicode="&#58972;" d="M701.062 325.749c-51.098 0-91.976-42.922-91.976-96.064s40.878-96.064 91.976-96.064 91.976 42.922 91.976 96.064-40.878 96.064-91.976 96.064zM515.066 896c-282.060 0-510.978-228.918-510.978-510.978s228.918-510.978 510.978-510.978 510.978 228.918 510.978 510.978-228.918 510.978-510.978 510.978zM508.934 748.838c71.537 0 130.81-61.317 130.81-138.986 0-75.625-59.273-138.986-130.81-138.986-71.537 0-130.81 61.317-130.81 138.986-2.044 75.625 57.23 138.986 130.81 138.986zM310.675 92.743c-71.537 0-130.81 61.317-130.81 138.986 0 75.625 59.273 138.986 130.81 138.986 71.537 0 130.81-61.317 130.81-138.986 2.044-75.625-57.23-138.986-130.81-138.986zM508.934 303.265c-32.703 0-61.317 30.659-61.317 65.405 0 34.747 28.615 65.405 61.317 65.405s63.361-30.659 63.361-65.405c-2.044-34.747-30.659-65.405-63.361-65.405zM705.15 92.743c-71.537 0-130.81 61.317-130.81 138.986 0 75.625 59.273 138.986 130.81 138.986 71.537 0 130.81-61.317 130.81-138.986 0-75.625-59.273-138.986-130.81-138.986zM508.934 513.788c51.098 0 91.976 42.922 91.976 96.064s-40.878 96.064-91.976 96.064-91.976-42.922-91.976-96.064c0-51.098 40.878-96.064 91.976-96.064zM312.719 325.749c-51.098 0-91.976-42.922-91.976-96.064s40.878-96.064 91.976-96.064 91.976 42.922 91.976 96.064-40.878 96.064-91.976 96.064z"  horiz-adv-x="1028" />

    
    <glyph glyph-name="zookeeper" unicode="&#58895;" d="M215.512615 377.816615v26.663385l125.833847 141.784615c-14.257231-0.708923-26.899692-1.142154-37.769847-1.142153H222.956308v26.702769h161.555692v-21.779693L277.464615 426.929231l-20.637538-22.449231c15.005538 1.102769 29.065846 1.654154 42.259692 1.654154h91.372308v-28.317539H215.512615zM411.293538 474.820923c0 35.958154 10.161231 62.503385 30.523077 79.832615 17.014154 14.375385 37.730462 21.543385 62.188308 21.543385 27.136 0 49.388308-8.743385 66.599385-26.230154 17.250462-17.486769 25.875692-41.629538 25.875692-72.467692 0-24.930462-3.820308-44.622769-11.421538-58.919385a81.329231 81.329231 0 0 0-33.319385-33.319384 98.855385 98.855385 0 0 0-47.773539-11.85477c-27.687385 0-50.057846 8.704-67.111384 26.112-17.014154 17.408-25.560615 42.535385-25.560616 75.303385z m34.422154 0c0-24.851692 5.513846-43.480615 16.541539-55.808 11.027692-12.366769 24.930462-18.550154 41.708307-18.550154 16.620308 0 30.483692 6.183385 41.472 18.628923 11.106462 12.406154 16.620308 31.389538 16.620308 56.832 0 23.985231-5.632 42.180923-16.738461 54.508308a53.248 53.248 0 0 1-41.353847 18.589538 53.563077 53.563077 0 0 1-41.708307-18.471384c-10.988308-12.327385-16.541538-30.877538-16.541539-55.729231zM623.300923 474.820923c0 35.958154 10.200615 62.503385 30.523077 79.832615 16.935385 14.375385 37.651692 21.543385 62.109538 21.543385 27.214769 0 49.388308-8.743385 66.678154-26.230154 17.211077-17.486769 25.875692-41.629538 25.875693-72.467692 0-24.930462-3.820308-44.622769-11.500308-58.919385a80.974769 80.974769 0 0 0-33.28-33.319384 98.776615 98.776615 0 0 0-47.812923-11.85477c-27.608615 0-50.057846 8.704-67.072 26.112-17.014154 17.408-25.521231 42.535385-25.521231 75.303385z m34.382769 0c0-24.851692 5.592615-43.480615 16.580923-55.808 11.106462-12.366769 25.009231-18.550154 41.708308-18.550154 16.659692 0 30.483692 6.183385 41.550769 18.628923 11.067077 12.406154 16.502154 31.389538 16.502154 56.832 0 23.985231-5.513846 42.180923-16.620308 54.508308a53.366154 53.366154 0 0 1-41.432615 18.589538c-16.699077 0-30.562462-6.144-41.708308-18.471384-10.988308-12.327385-16.580923-30.877538-16.580923-55.729231z"  horiz-adv-x="1024" />

    
    <glyph glyph-name="database" unicode="&#59216;" d="M512 457.142857q135.428571 0 253.142857 24.571429t185.714286 72.571428v-97.142857q0-39.428571-58.857143-73.142857t-160-53.428571-220-19.714286-220 19.714286T132 384 73.142857 457.142857V554.285714q68-48 185.714286-72.571428t253.142857-24.571429z m0-438.857143q135.428571 0 253.142857 24.571429t185.714286 72.571428v-97.142857q0-39.428571-58.857143-73.142857t-160-53.428571-220-19.714286-220 19.714286-160 53.428571-58.857143 73.142857v97.142857q68-48 185.714286-72.571428t253.142857-24.571429z m0 219.428572q135.428571 0 253.142857 24.571428t185.714286 72.571429v-97.142857q0-39.428571-58.857143-73.142857t-160-53.428572-220-19.714286-220 19.714286-160 53.428572-58.857143 73.142857V334.857143q68-48 185.714286-72.571429t253.142857-24.571428zM512 896q118.857143 0 220-19.714286t160-53.428571 58.857143-73.142857v-73.142857q0-39.428571-58.857143-73.142858t-160-53.428571T512 530.285714t-220 19.714286T132 603.428571 73.142857 676.571429V749.714286q0 39.428571 58.857143 73.142857t160 53.428571T512 896z"  horiz-adv-x="1024" />

    
    <glyph glyph-name="jiaosemoxing" unicode="&#58907;" d="M542.72 363.52c-46.08-30.72-97.28-46.08-153.6-46.08s-107.52 15.36-153.6 46.08c-117.76-56.32-204.8-184.32-204.8-327.68 0-148.48 711.68-153.6 711.68 0 5.12 143.36-76.8 271.36-199.68 327.68z m-153.6-5.12c133.12 0 240.64 107.52 240.64 240.64s-107.52 240.64-240.64 240.64C261.12 844.8 153.6 732.16 153.6 599.04s107.52-240.64 235.52-240.64z m424.96 20.48c-35.84-25.6-76.8-40.96-122.88-40.96 87.04-71.68 143.36-184.32 143.36-312.32v-15.36c92.16 15.36 158.72 40.96 158.72 87.04-5.12 122.88-76.8 230.4-179.2 281.6z m-199.68 0c20.48-10.24 46.08-15.36 71.68-15.36 107.52 0 194.56 87.04 194.56 199.68s-87.04 199.68-194.56 199.68h-15.36c30.72-46.08 51.2-102.4 51.2-163.84-5.12-87.04-46.08-168.96-107.52-220.16z"  horiz-adv-x="1024" />

    
    <glyph glyph-name="qunzumoxing" unicode="&#58912;" d="M691.2 332.8c5.12-10.24 15.36-20.48 20.48-30.72v-46.08c61.44-35.84 112.64-81.92 163.84-117.76v-71.68h138.24v51.2c-46.08 35.84-81.92 81.92-148.48 107.52v71.68c35.84 46.08 56.32 112.64 56.32 163.84 0 81.92-61.44 148.48-133.12 148.48-20.48 0-40.96-5.12-56.32-15.36 5.12-15.36 5.12-35.84 5.12-56.32-5.12-61.44-20.48-138.24-46.08-204.8zM10.24 117.76v-51.2h138.24v71.68c51.2 40.96 97.28 87.04 163.84 122.88v30.72c10.24 10.24 15.36 20.48 20.48 35.84-30.72 66.56-46.08 143.36-46.08 209.92 0 20.48 0 40.96 5.12 61.44-15.36 5.12-35.84 10.24-56.32 10.24-71.68 0-133.12-66.56-133.12-153.6 0-51.2 25.6-122.88 61.44-163.84v-66.56c-71.68-25.6-107.52-71.68-153.6-107.52zM691.2 532.48c0 122.88-66.56 220.16-179.2 220.16s-184.32-102.4-184.32-220.16c0-87.04 35.84-204.8 97.28-261.12-107.52-40.96-168.96-102.4-230.4-148.48v-102.4h640v102.4c-66.56 46.08-128 107.52-235.52 138.24v5.12c61.44 61.44 92.16 179.2 92.16 266.24z"  horiz-adv-x="1024" />

    
    <glyph glyph-name="zuzhijiegou" unicode="&#58880;" d="M192.928 405.012h299.443v-180.358c0-10.335 8.379-18.714 18.714-18.714v0c10.335 0 18.714 8.379 18.714 18.714v180.358h299.443v-199.067c0-10.335 8.379-18.714 18.714-18.714v0c10.335 0 18.714 8.379 18.714 18.714l-0 205.692c0 17.012-13.791 30.804-30.804 30.804h-306.067v81.726c0 10.335-8.379 18.714-18.714 18.714v0c-10.335 0-18.714-8.379-18.714-18.714v-81.726l-306.070 0c-17.012 0-30.804-13.791-30.804-30.804v-205.692c0-10.335 8.379-18.714 18.714-18.714v0c10.335 0 18.714 8.379 18.714 18.714v199.067h0.001zM267.791 157.073h-187.15c-10.347 0-18.715-8.383-18.715-18.715v-181.45c0-10.327 8.369-18.714 18.715-18.714h187.15c10.326 0 18.714 8.387 18.714 18.714l-0 181.45c0 10.332-8.388 18.715-18.714 18.715v0zM604.658 157.073h-187.145c-10.346 0-18.72-8.383-18.72-18.715v-181.45c0-10.327 8.375-18.714 18.72-18.714h187.146c10.327 0 18.72 8.387 18.72 18.714v181.45c-0.001 10.332-8.394 18.715-18.721 18.715v0zM941.533 157.073h-187.152c-10.346 0-18.714-8.383-18.714-18.715v-181.45c0-10.327 8.373-18.714 18.714-18.714h187.152c10.325 0 18.714 8.387 18.714 18.714v181.45c-0.001 10.332-8.389 18.715-18.714 18.715v0zM361.363 573.444h299.445c10.326 0 18.714 8.378 18.714 18.715l-0 224.067c0 10.346-8.388 18.724-18.714 18.724h-299.445c-10.341 0-18.714-8.378-18.714-18.724v-224.068c0-10.336 8.374-18.714 18.714-18.714v0zM361.363 573.444z"  horiz-adv-x="1024" />

    
    <glyph glyph-name="gangwei" unicode="&#59084;" d="M511.6 607.9m-224.2 0a224.2 224.2 0 1 1 448.4 0 224.2 224.2 0 1 1-448.4 0ZM582.8 379.1L511.6 308l-71.1 71.1C226.7 345 63.3 159.8 63.3-63.6H960c0 223.4-163.5 408.6-377.2 442.7z m-71.2-378.6l-76.8 76.8 76.8 230.4 76.8-230.6-76.8-76.6z"  horiz-adv-x="1024" />

    
    <glyph glyph-name="dakai" unicode="&#59005;" d="M916.48 5.12c0-35.84-30.72-61.44-66.56-61.44H46.08l112.64 522.24c0 35.84 30.72 66.56 61.44 66.56h742.4c35.84 0 61.44-30.72 61.44-66.56l-107.52-460.8z m-742.4 573.44h727.04V640c0 35.84-30.72 66.56-61.44 66.56H450.56v56.32c0 35.84-30.72 61.44-61.44 61.44H61.44C30.72 829.44 0 798.72 0 762.88v-768L112.64 512c0 40.96 25.6 66.56 61.44 66.56z m0 0z"  horiz-adv-x="1024" />

    
    <glyph glyph-name="dakai_jujue" unicode="&#59006;" d="M143.36 506.88l15.36 56.32c0 40.96 25.6 61.44 56.32 61.44h691.2v61.44c0 35.84-30.72 61.44-56.32 61.44H481.28V803.84c0 35.84-30.72 56.32-56.32 56.32H107.52C76.8 870.4 51.2 839.68 51.2 803.84V435.2c25.6 30.72 56.32 51.2 92.16 71.68z m824.32 76.8H261.12c-30.72 0-56.32-25.6-61.44-56.32 30.72 10.24 66.56 15.36 92.16 15.36 189.44 0 343.04-153.6 343.04-343.04 0-61.44-20.48-122.88-51.2-174.08h271.36c35.84 0 61.44 25.6 61.44 56.32l102.4 440.32c5.12 30.72-20.48 61.44-51.2 61.44z m-675.84-92.16C133.12 491.52 0 358.4 0 199.68s133.12-291.84 291.84-291.84 291.84 133.12 291.84 291.84-128 291.84-291.84 291.84z m0-532.48c-30.72 0-56.32 25.6-56.32 56.32s25.6 56.32 56.32 56.32 56.32-25.6 56.32-56.32c0-35.84-25.6-56.32-56.32-56.32z m61.44 430.08v-15.36l-30.72-230.4c0-20.48-15.36-35.84-35.84-35.84-20.48 0-35.84 15.36-35.84 35.84l-25.6 230.4v15.36c0 30.72 30.72 56.32 61.44 56.32s71.68-25.6 66.56-56.32z"  horiz-adv-x="1024" />

    
    <glyph glyph-name="dakai_moren" unicode="&#59007;" d="M143.36 506.88l15.36 61.44c0 40.96 25.6 61.44 56.32 61.44h691.2v56.32c0 35.84-30.72 61.44-56.32 61.44H481.28V803.84c0 35.84-30.72 56.32-56.32 56.32H107.52C76.8 870.4 51.2 839.68 51.2 803.84V435.2c25.6 30.72 56.32 51.2 92.16 71.68z m824.32 76.8H261.12c-30.72 0-56.32-25.6-56.32-56.32 25.6 10.24 56.32 15.36 87.04 15.36 189.44 0 343.04-153.6 343.04-343.04 0-66.56-20.48-122.88-51.2-174.08h271.36c35.84 0 61.44 25.6 61.44 56.32l102.4 440.32c5.12 30.72-20.48 61.44-51.2 61.44z m-675.84-92.16C133.12 491.52 0 358.4 0 199.68s128-291.84 291.84-291.84 291.84 133.12 291.84 291.84-133.12 291.84-291.84 291.84z m209.92-332.8H76.8v81.92h430.08v-81.92h-5.12z"  horiz-adv-x="1024" />

    
    <glyph glyph-name="guanbi" unicode="&#59008;" d="M931.84 686.08H542.72L512 737.28c-30.72 61.44-40.96 92.16-92.16 92.16H92.16C40.96 829.44 0 788.48 0 737.28v-701.44c0-51.2 40.96-92.16 92.16-92.16h844.8c51.2 0 92.16 40.96 92.16 92.16v563.2c0 46.08-46.08 87.04-97.28 87.04z"  horiz-adv-x="1029" />

    
    <glyph glyph-name="dakai_rongxu" unicode="&#59009;" d="M143.36 506.88l15.36 56.32c0 40.96 25.6 61.44 56.32 61.44h691.2v61.44c0 35.84-30.72 61.44-56.32 61.44H481.28V803.84c0 35.84-30.72 56.32-56.32 56.32H107.52C76.8 870.4 51.2 839.68 51.2 803.84V435.2c25.6 30.72 56.32 51.2 92.16 71.68z m824.32 76.8H261.12c-30.72 0-56.32-25.6-61.44-56.32 30.72 10.24 66.56 15.36 92.16 15.36 189.44 0 343.04-153.6 343.04-343.04 0-61.44-20.48-122.88-51.2-174.08h271.36c35.84 0 61.44 25.6 61.44 56.32l102.4 440.32c5.12 30.72-20.48 61.44-51.2 61.44zM291.84-97.28C128-97.28 0 35.84 0 194.56S133.12 486.4 291.84 486.4s291.84-133.12 291.84-291.84-128-291.84-291.84-291.84z m215.04 440.32c-15.36 15.36-40.96 15.36-56.32 0L240.64 133.12l-102.4 102.4c-15.36 15.36-40.96 15.36-56.32 0s-15.36-40.96 0-56.32l133.12-133.12c15.36-15.36 40.96-15.36 56.32 0L506.88 281.6c10.24 20.48 10.24 40.96 0 61.44z"  horiz-adv-x="1024" />

    
    <glyph glyph-name="guanbi_jujue" unicode="&#59010;" d="M942.08 686.08H588.8l-25.6 46.08c-25.6 56.32-35.84 81.92-81.92 81.92h-307.2c-46.08 0-81.92-35.84-81.92-81.92v-235.52c51.2 35.84 117.76 61.44 184.32 61.44 179.2 0 322.56-143.36 322.56-322.56 0-81.92-30.72-158.72-76.8-215.04h414.72c46.08 0 81.92 35.84 81.92 81.92v512c10.24 35.84-30.72 71.68-76.8 71.68z m-665.6-179.2C122.88 506.88 0 384 0 230.4s122.88-276.48 276.48-276.48S552.96 76.8 552.96 230.4 430.08 506.88 276.48 506.88z m0-506.88c-25.6 0-51.2 25.6-51.2 51.2s25.6 51.2 51.2 51.2 51.2-25.6 51.2-51.2-20.48-51.2-51.2-51.2z m56.32 409.6v-15.36L307.2 179.2c0-20.48-15.36-30.72-30.72-30.72-20.48 0-30.72 15.36-30.72 30.72l-25.6 215.04V409.6c0 25.6 25.6 56.32 61.44 56.32s56.32-30.72 51.2-56.32z"  horiz-adv-x="1024" />

    
    <glyph glyph-name="guanbi_moren" unicode="&#59011;" d="M942.08 686.08H588.8l-25.6 46.08c-25.6 56.32-35.84 81.92-81.92 81.92h-307.2c-46.08 0-81.92-35.84-81.92-81.92v-235.52c51.2 35.84 117.76 56.32 184.32 56.32 179.2 0 322.56-143.36 322.56-322.56 0-81.92-30.72-153.6-81.92-215.04h419.84c46.08 0 81.92 35.84 81.92 81.92v512c10.24 40.96-30.72 76.8-76.8 76.8z m-665.6-179.2C122.88 506.88 0 384 0 230.4s122.88-276.48 276.48-276.48 276.48 128 276.48 276.48-122.88 276.48-276.48 276.48zM76.8 194.56v76.8h404.48v-76.8H76.8z"  horiz-adv-x="1024" />

    
    <glyph glyph-name="guanbi_rongxu" unicode="&#59012;" d="M936.96 686.08H583.68l-25.6 46.08c-25.6 56.32-35.84 81.92-81.92 81.92H174.08c-46.08 0-81.92-35.84-81.92-81.92v-235.52c51.2 35.84 117.76 61.44 184.32 61.44 179.2 0 322.56-143.36 322.56-322.56 0-81.92-30.72-158.72-76.8-215.04h414.72c46.08 0 81.92 35.84 81.92 81.92v512c5.12 35.84-35.84 71.68-81.92 71.68zM276.48-51.2C122.88-51.2 0 76.8 0 230.4s122.88 276.48 276.48 276.48 276.48-128 276.48-276.48S435.2-51.2 276.48-51.2z m199.68 419.84c-15.36 15.36-40.96 15.36-51.2 0L225.28 168.96 128 266.24c-15.36 15.36-40.96 15.36-51.2 0s-15.36-40.96 0-51.2l128-128c15.36-15.36 40.96-15.36 51.2 0l225.28 225.28c10.24 15.36 10.24 35.84-5.12 56.32z"  horiz-adv-x="1024" />

    
    <glyph glyph-name="wenjian" unicode="&#59013;" d="M522.24 896v-343.04h343.04L522.24 896z m-40.96-384V896H138.24v-1024h747.52V512H481.28z"  horiz-adv-x="1024" />

    
    <glyph glyph-name="wenjian_jujue" unicode="&#59014;" d="M609.28 896v-312.32h307.2zM389.12 435.2c-153.6 0-281.6-128-281.6-281.6s128-281.6 281.6-281.6 281.6 128 281.6 281.6-128 281.6-281.6 281.6z m0-512c-25.6 0-51.2 25.6-51.2 51.2 0 30.72 25.6 51.2 51.2 51.2s51.2-25.6 51.2-51.2-25.6-51.2-51.2-51.2z m56.32 414.72v-15.36L414.72 102.4c0-20.48-15.36-30.72-30.72-30.72-20.48 0-30.72 15.36-30.72 30.72l-25.6 220.16v15.36c0 30.72 25.6 56.32 61.44 56.32s61.44-30.72 56.32-56.32z m107.52 209.92V896H240.64v-455.68c46.08 25.6 97.28 35.84 153.6 35.84 179.2 0 322.56-143.36 322.56-322.56 0-71.68-25.6-133.12-61.44-184.32h261.12V547.84H552.96z"  horiz-adv-x="1024" />

    
    <glyph glyph-name="wenjian_moren" unicode="&#59015;" d="M604.16 896v-312.32h312.32z m-51.2-348.16V896H240.64v-455.68c46.08 25.6 97.28 35.84 153.6 35.84 179.2 0 327.68-143.36 327.68-327.68 0-71.68-25.6-133.12-61.44-184.32H921.6V547.84H552.96zM389.12 435.2c-158.72 0-281.6-128-281.6-281.6s128-281.6 281.6-281.6 281.6 128 281.6 281.6-122.88 281.6-281.6 281.6z m-204.8-322.56v76.8h409.6v-76.8h-409.6z"  horiz-adv-x="1024" />

    
    <glyph glyph-name="wenjian_rongxu" unicode="&#59016;" d="M604.16 896v-312.32h312.32z m-51.2-348.16V896H240.64v-455.68c46.08 25.6 97.28 35.84 153.6 35.84 179.2 0 327.68-143.36 327.68-327.68 0-71.68-25.6-133.12-61.44-184.32H921.6V547.84H552.96zM389.12-128c-153.6 0-281.6 128-281.6 281.6s122.88 281.6 281.6 281.6 281.6-128 281.6-281.6-128-281.6-281.6-281.6zM588.8 291.84c-15.36 15.36-35.84 15.36-51.2 0L337.92 92.16l-97.28 97.28c-15.36 15.36-35.84 15.36-51.2 0s-15.36-35.84 0-51.2l128-128c15.36-15.36 35.84-15.36 51.2 0l225.28 225.28c10.24 20.48 10.24 40.96-5.12 56.32z"  horiz-adv-x="1024" />

    
    <glyph glyph-name="HTTP" unicode="&#58973;" d="M61.44-107.52h1112.746667c20.48 0 34.133333 13.653333 34.133333 34.133333v887.466667c0 20.48-13.653333 34.133333-34.133333 34.133333H61.44C40.96 848.213333 27.306667 834.56 27.306667 814.08v-887.466667c-6.826667-13.653333 13.653333-34.133333 34.133333-34.133333z m34.133333 75.093333v546.133334h1037.653334v-546.133334H95.573333zM1133.226667 779.946667v-191.146667H95.573333V779.946667h1037.653334zM184.32 684.373333c0 20.48 13.653333 34.133333 34.133333 34.133334s34.133333-13.653333 34.133334-34.133334-20.48-34.133333-34.133334-34.133333-34.133333 20.48-34.133333 34.133333z m129.706667 0c0 20.48 13.653333 34.133333 34.133333 34.133334s34.133333-13.653333 34.133333-34.133334-13.653333-34.133333-34.133333-34.133333-34.133333 20.48-34.133333 34.133333z m129.706666 0c0 20.48 13.653333 34.133333 34.133334 34.133334s34.133333-13.653333 34.133333-34.133334-13.653333-34.133333-34.133333-34.133333-34.133333 20.48-34.133334 34.133333zM211.626667 356.693333h40.96V281.6c13.653333 13.653333 20.48 20.48 40.96 20.48 27.306667 0 40.96-20.48 40.96-54.613333v-81.92h-40.96V240.64c0 20.48-6.826667 27.306667-13.653334 27.306667s-13.653333-6.826667-20.48-13.653334v-88.746666h-47.786666V356.693333zM382.293333 213.333333v54.613334h-20.48v27.306666h20.48l6.826667 34.133334h34.133333v-34.133334h34.133334v-34.133333h-34.133334v-47.786667c0-13.653333 6.826667-20.48 20.48-20.48h13.653334l6.826666-27.306666c-6.826667 0-13.653333-6.826667-34.133333-6.826667-34.133333 0-47.786667 20.48-47.786667 54.613333zM491.52 213.333333v54.613334h-20.48v27.306666h20.48l6.826667 34.133334h34.133333v-34.133334h34.133333v-34.133333h-34.133333v-47.786667c0-13.653333 6.826667-20.48 20.48-20.48h13.653333l6.826667-27.306666c-6.826667 0-13.653333-6.826667-34.133333-6.826667-34.133333 0-47.786667 20.48-47.786667 54.613333zM593.92 302.08h34.133333v-13.653333c13.653333 6.826667 27.306667 13.653333 40.96 13.653333 34.133333 0 54.613333-27.306667 54.613334-68.266667 0-47.786667-27.306667-75.093333-54.613334-75.093333-13.653333 0-20.48 6.826667-34.133333 13.653333V110.933333h-40.96V302.08z m88.746667-68.266667c0 27.306667-6.826667 34.133333-20.48 34.133334-6.826667 0-13.653333-6.826667-20.48-13.653334v-54.613333c6.826667-6.826667 13.653333-6.826667 20.48-6.826667 6.826667 0 20.48 13.653333 20.48 40.96zM757.76 274.773333c0 13.653333 13.653333 27.306667 27.306667 27.306667s27.306667-13.653333 27.306666-27.306667-13.653333-27.306667-27.306666-27.306666-27.306667 13.653333-27.306667 27.306666z m0-88.746666c0 13.653333 13.653333 27.306667 27.306667 27.306666s27.306667-13.653333 27.306666-27.306666-13.653333-27.306667-27.306666-27.306667-27.306667 13.653333-27.306667 27.306667zM887.466667 356.693333h27.306666l-47.786666-238.933333h-34.133334zM989.866667 356.693333h27.306666l-54.613333-238.933333h-27.306667z"  horiz-adv-x="1228" />

    
    <glyph glyph-name="user" unicode="&#59017;" d="M914.286 93.147q0-68.571-41.728-108.288T761.71-54.857H262.29q-69.156 0-110.848 39.716t-41.728 108.288q0 30.282 2.012 59.136t8.009 62.282 15.14 61.988 24.576 55.698 35.438 46.3 48.86 30.574 63.707 11.446q5.157 0 23.99-12.288t42.57-27.428 61.696-27.429T512 341.138t76.288 12.288 61.696 27.429 42.57 27.428 23.99 12.288q34.853 0 63.707-11.446t48.86-30.574 35.438-46.3 24.576-55.698 15.14-61.988 8.01-62.282 2.01-59.136zM731.429 603.43q0-90.844-64.293-155.136T512 384t-155.136 64.293-64.293 155.136 64.293 155.136T512 822.857t155.136-64.292 64.293-155.136z"  horiz-adv-x="1024" />

    
    <glyph glyph-name="relationship" unicode="&#59018;" d="M913.213 49.797a166.277 166.277 0 0 1 65.28 132.598c0 93.829-76.83 171.346-171.315 171.346-96.553 0-173.404-76.841-173.404-171.346 0-53.043 23.777-101.294 65.29-132.598l-55.777-91.77 82.248-4.783 29.266-50.288 48.291 108.769h7.476l48.24-108.77 29.236 50.29 82.33 4.781-57.16 91.771z m-106.045 250.91c65.27 0 118.282-53.032 118.282-118.312s-53.012-118.293-118.282-118.293c-67.318 0-120.371 53.023-120.371 118.303s53.053 118.303 120.371 118.303zM423.66 865.055c118.312 0 212.142-93.84 212.142-212.122 0-84.992-50.32-161.843-129.864-195.84 36.034-7.475 67.297-16.998 96.563-31.273 21.74-9.533 40.776-21.76 60.508-34.007 12.237-7.465 17.009-23.798 9.523-36.024-7.464-12.257-23.777-16.988-36.044-9.544-19.006 12.278-38.759 21.77-57.785 31.304-40.806 21.76-93.85 31.263-146.872 31.263-57.815 0-115.61-12.227-161.853-31.263-45.527-21.76-159.058-84.296-168.602-130.54-3.39-8.857-3.39-21.084 4.076-30.597 7.464-12.237 17.008-19.046 29.224-21.77 12.248-2.724 26.543 0 36.045 7.465l65.27 40.796c17.009 12.257 40.796 0 40.796-21.74v-193.105c0-31.284 26.532-57.795 60.54-57.795a60.682 60.682 0 0 1 60.497 55.788v72.058c0 7.455 7.496 21.699 26.511 23.788 19.057 0 26.522-17.019 26.522-23.788v-72.058c2.744-31.335 29.235-55.788 60.55-55.788 33.986 0 60.466 26.511 60.466 57.795v14.295c0 14.243 12.268 26.521 26.542 26.521 14.265 0 26.522-12.278 26.522-26.521v-14.295c0-60.529-50.33-113.572-113.53-113.572-34.008 0-65.301 14.295-87.061 40.806-21.75-26.511-53.003-40.806-87.01-40.806-62.556 0-113.54 53.043-113.54 113.572V172.892l-23.799-17.008c-21.76-14.296-50.33-19.026-74.803-12.237-29.235 4.772-48.26 19.056-65.28 43.53-14.285 21.75-16.998 48.292-12.216 72.07 14.254 70.02 132.567 138.014 199.874 166.583 29.236 14.285 62.577 23.798 96.574 29.246-79.565 33.986-132.598 110.838-132.598 197.867-0.03 117.607 96.533 212.112 212.112 212.112z m0-53.023c-87.03 0-159.1-72.08-159.1-159.099 0-87.03 72.07-159.109 159.1-159.109 89.067-0.696 159.109 72.08 159.109 159.11 0 86.333-70.042 159.098-159.11 159.098z"  horiz-adv-x="1024" />

    
    <glyph glyph-name="moxingku" unicode="&#58883;" d="M1003.72 559.104l-473.088 281.6c-6.144 3.584-12.8 5.12-18.944 4.608-6.656 0-13.312-1.536-18.944-4.608l-473.088-281.6c-18.432-10.24-25.088-33.792-14.848-52.736 10.24-18.432 33.792-25.088 52.224-14.848l442.88 263.68c7.68 4.608 16.896 4.608 24.064 0l442.368-263.68c18.432-10.24 41.984-3.584 52.224 14.848 10.24 18.944 3.584 42.496-14.848 52.736zM880.84 483.84L540.36 684.032c-17.92 10.752-40.448 10.752-58.368 0L141.512 483.84c-17.92-10.24-28.672-29.696-28.672-50.688v-455.168c0-32.256 26.112-58.88 58.368-58.88h680.448c32.256 0 58.368 26.112 58.368 58.88V433.152c-0.512 20.992-11.264 40.448-29.184 50.688zM372.424 22.016c0-8.192-6.656-14.848-14.336-14.848h-133.12c-8.192 0-14.336 6.656-14.336 14.848V156.672c0 8.192 6.656 14.848 14.336 14.848h133.12c8.192 0 14.336-6.656 14.336-14.848v-134.656z m0 214.528c0-8.192-6.656-14.848-14.336-14.848h-133.12c-8.192 0-14.336 6.656-14.336 14.848V371.2c0 8.192 6.656 14.848 14.336 14.848h133.12c8.192 0 14.336-6.656 14.336-14.848v-134.656zM583.88 22.016c0-8.192-6.656-14.848-14.336-14.848h-133.12c-8.192 0-14.336 6.656-14.336 14.848V156.672c0 8.192 6.656 14.848 14.336 14.848h133.12c8.192 0 14.336-6.656 14.336-14.848v-134.656z m0 214.528c0-8.192-6.656-14.848-14.336-14.848h-133.12c-8.192 0-14.336 6.656-14.336 14.848V371.2c0 8.192 6.656 14.848 14.336 14.848h133.12c8.192 0 14.336-6.656 14.336-14.848v-134.656z m208.384-214.528c0-8.192-6.656-14.848-14.336-14.848h-133.12c-8.192 0-14.336 6.656-14.336 14.848V156.672c0 8.192 6.656 14.848 14.336 14.848h133.12c8.192 0 14.336-6.656 14.336-14.848v-134.656z"  horiz-adv-x="1025" />

    
    <glyph glyph-name="jiekou1" unicode="&#58890;" d="M162.544 754.789h889.893v-741.577H162.544V754.789z m49.439-692.139h791.016v642.7H211.983v-642.7z m593.262 49.438H409.737v98.877H261.422V655.911H953.56v-444.946H805.245v-98.877z m98.877 494.385H310.86v-346.07h148.315v-98.877h296.631v98.877h148.315v346.07z m-543.823-49.439h49.438V359.28h-49.438V557.034z m148.315 0h49.438V359.28h-49.438V557.034z m148.315 0h49.438V359.28h-49.438V557.034z m148.316 0h49.438V359.28h-49.438V557.034z"  horiz-adv-x="1228" />

    
    <glyph glyph-name="webservice1" unicode="&#58891;" d="M503.027 478.065c0.08 0.081 0.141 0.142 0.202 0.22-0.202 0.883-0.36 1.643-0.401 2.203 0.078-0.8 0.161-1.602 0.2-2.423M675.06 290.247c0.02 0 0.02 0 0.02 0.023-0.02 0-0.1 0-0.12 0.02 0.02-0.023 0.08-0.023 0.1-0.043m4.406-0.54c-1.062 0.161-3.444-0.121-4.406 0.54-0.583-2.004 0.3-2.765 4.406-0.54M511.922 849.874c-247.352 0-447.869-200.516-447.869-447.87s200.517-447.848 447.87-447.848c247.35 0 447.849 200.496 447.849 447.849 0 247.353-200.5 447.87-447.85 447.87m286.053-174.96c-15.423-0.479-26.16-0.52-38.581-9.054-4.969-3.444-8.353-8.032-14.704-9.814-5.689-1.602-11.818-0.181-17.448-2.124-20.372-6.892-17.127-50.48-43.97-43.889-12.579 3.104-21.431 17.968-27.78 27.703-5.59 8.534-15.765 15.603-8.916 26.323-3.106-0.8-6.45 0.08-9.536-0.482 4.287 9.435 18.691 8.592 21.094 13.422 5.968 12.098-16.426 13.342-22.777 15.025 7.653 8.153 11.52-2.746 19.072-0.901 7.25 1.782-3.828 11.358-8.194 12.4-1.542 0.401-27.062-7.01-12.297 6.19-18.25 11.639-36.497 23.257-54.75 34.895-3.083-12.92 24.28-20.291 33.212-24.859-1.36-5.327-9.693-13.12-16.044-10.836-5.988 2.145-3.586 12.08-12.62 11.098-6.47-15.042 13.662-10.636 15.525-19.85 2.122-10.497-7.611-6.048-11.339-5.87-0.9 0.041-7.89 7.273-8.254 1.805-0.439-6.47 11.139-3.947 11.939-10.516-13.46-0.56-20.352 4.326-31.37 11.619-12.821 8.494-19.372 7.732-35.056 7.732 4.666 1.923 11.139 3.366 15.144 6.47 2.203 1.703 10.818 10.076 11.378 11.939 2.445 8.052-0.121 7.431-7.853 12.72-6.851 4.687-15.144 13.1-23.458 14.763-30.108 6.009-9.292-27.163-32.11-31.73 0.382-0.02 0.8-0.04 1.121-0.04h-1.302c0.06 0 0.1 0.02 0.182 0.04-5.31 0.181-15.225 1.46-18.631-1.303-2.383-1.983-2.604-9.854-5.287-12.74-4.77-5.088-11.9-6.11-17.607-9.777-5.569-3.585-17.85-12.799-21.114-19.05-12.06-23.036 27.163-30.188 42.027-36.918 6.71-3.044 26.34-7.21 30.027-12.3 4.888-6.81-4.25-13.22 6.008-18.027 3.246-1.522 9.998-1.823 12.822 1.322 4.588 5.168-1.862 6.329-2.963 12.3-2.124 11.458 1.36 6.909 7.17 11.176 11.739 8.673 9.094 9.216 4.867 23.037-1.983 6.45-9.392 24.4-2.864 29.166 8.494 6.21 26.623-3.366 33.134-4.166 7.61-0.921 11.898-11.419 16.024-15.724 2.763-2.864 7.671-8.915 12.46-8.254 7.612 1.062 4.43 7.692 8.833 10.778 11.858 8.193 14.964-2.945 19.691-14.122 4.447-10.477 8.653-14.381 16.547-21.114 3.686-3.104 19.75-14.283 18.25-21.172-1.023-4.628-19.411-11.679-24.3-13.241-17.987-5.69-51.683 9.314-55.33-19.17 6.993 2.603 26.825 18.789 32.753 11.115 2.725-3.485-2.142-8.552-0.981-11.999 3.384-10.376 11.376-6.77 19.769-5.087-0.58-0.381-1.181-0.682-1.782-0.942 11.457 5.89 10.276 4.649 15.525 14.223 1.723 3.104 4.265 10.657 6.69 12.86 8.312 7.691 9.614 2.404 14.762-3.485 1.363-1.563 14.104-19.951 9.574-19.03-14.843 2.965-29.085 2.584-41.385-5.53-7.091-4.688-13.801-10.996-22.275-14.12-2.042-0.742-17.046-2.186-15.282 0.378 2.581 3.745 11.52 6.23 15.045 10.258-9.758 4.025-17.91-4.848-25.603-10.036-8.111-3.866-10.016-11.038-16.948-17.326-3.006-2.726-8.732-3.205-11.72-6.811-2.904-3.526-3.222-9.014-5.967-12.36-1.905-2.304-6.834-0.921-8.817-4.429-2.602-4.567 2.384-8.855 1.302-12.14-2.022-6.009-13.46-11.099-17.826-15.424a48.74 48.74 0 0 1 1.723 1.744c-4.368-4.628-9.955-7.992-13.382-13.362 1.562-7.553 6.529-25.54 5.148-29.648-4.587-13.663-13.462 7.37-17.066 12.821-12.398 18.649-37.159 6.17-54.066 4.626-21.634-1.983-42.826-30.067-29.467-52.842 6.392-10.94 17.167-15.166 29.55-12.643 10.975 2.264 14.303 17.65 24.637 17.93 19.05 0.52 0.421-18.649-1.221-25.682-1.502-6.508 2.382-7.111 9.094-8.731 4.949-1.181 11.959 2.142 16.246-0.702 2.705-1.782 2.584-11.578 6.291-8.471-7.33-6.072-5.61-20.473 1.883-25.662 8.335-5.768 18.108-0.439 26.844-2.644 16.446-4.207 8.593 1.244 23.035 9.975 9.758 5.85 11.358-1.12 18.03-1.12 4.527-0.043 7.412 6.508 14.985 4.607 6.17-1.562 8.653-6.33 16.006-7.431 3.026-0.46 6.15 1.143 9.034 0.82 13.662-1.522 24.097-10.235 34.855-18.129 8.875-6.49 14.742-5.168 25.099-8.113 7.552-2.163 21.515-13.12 20.793-22.736-0.12-1.704-6.73-10.357-7.853-14.24 1.923-1.363 15.383 1.66 19.33 1.962-1.302-1.523-10.477-7.974-10.477-4.547 0-1.761 6.51-5.35 8.075-6.47 4.81 15.524 12.658 5.529 22.075 1.68 8.053-3.285 17.95-3.444 26.522-5.486 7.272-1.723 23.317-6.651 28.707-12.58 6.47-7.17 2.022-18.79-2.784-25.92-6.29-9.335-15.744-12.92-19.67-23.898-3.106-8.693-0.782-17.488-2.546-27.143-2.403-13.059-4.305-8.491-12.741-16.466-7.071-6.71-0.099-5.528-9.756-9.816-9.675-4.285-18.19-3.025-24.881-13.662a25.773 25.773 0 0 1 0.66 2.044c-2.823-3.927-4.226-12.04-5.586-14.704-3.367-6.791-8.013-11.058-13.382-16.728-2.044-2.143-20.872-27.865-21.955-25.82-1.403 2.682-16.226-2.686-16.948 1.16 0.58-3.243-0.16-2.163 3.526-4.005-3.407-21.152-12.362-24.298-33.095-24.518 1.763-10.155-7.53-8.133-11.858-13.6-2.524-3.186-3.725-12.14-5.489-16.288-1.08-2.582-9.196-12.979-9.196-15.023 0-1.923 2.726-4.688 5.287-7.35-14.641-2.905-29.547-4.93-44.709-6.15 2.824 3.565 3.526 6.69-5.508 7.13 2.402 6.572 8.09 10.32 10.497 16.668 1.141 3.026 0.2 4.207 1.163 7.192 3.306 10.276 1.863 6.392 0 14.384-4.368 18.69 1.563 23.777 6.65 40.926 5.229 17.589 4.77 40.401 8.093 59.335 1.582 9.094 4.186 27.943 1.042 36.537-3.525 9.635-19.15 17.246-26.323 23.719-10.096 9.253-15.504 19.19-22.996 30.607-3.826 5.769-8.171 11.457-11.139 17.748-6.37 13.483 0 5.45 1.083 13.4 1.02 7.674-0.924 14.543 2.122 22.575 3.364 8.895 11.78 14.462 14.54 23.438 2.486 7.992 0.604 18.068-7.61 20.733-4.586 1.461-9.615-1.983-14.223-1.224-6.41 1.043-13.662 5.85-18.709 9.676-7.012 5.35-9.657 14.043-17.129 19.11-6.27 4.247-10.715 1.703-17.447 3.705-6.97 2.041-11.258 10.656-16.906 13.361-8.453 4.046-13.22-1.763-22.156-0.582-7.593 0.963-19.19 9.415-26.284 12.58-14.424 6.47-23.196 13.583-28.985 28.225-4.908 12.559-12.14 18.408-20.612 28.866-8.595 10.616-11.277 19.63-24.518 22.456-1.562 0.34 3.223-11.138 3.725-12.04 4.726-8.753 11.817-16.788 17.548-24.939 8.413-12 4.847-14.26-3.705-2.645-9.796 13.282-21.152 26.522-29.648 40.606-3.185 5.289-2.584 8.734-7.873 13.78-5.128 4.909-11.8 7.273-16.966 11.94-18.532 16.647-21.896 38.881-19.771 62.638 0.701 7.752 3.485 13.922 2.243 21.374-1.002 6.17-4.668 11.277-9.213 15.845-1.482 2.324-5.15 8.092-5.37 8.451-4.207 6.992-7.472 13.882-14.162 19.592-3.826 3.306-13.743 11.018-23.098 17.488 41.968 52.342 96.875 93.788 159.833 119.55 0.502-3.164 1.863-6.33 3.907-9.374 5.168-7.654 10.134-7.051 20.21-9.176-1.08-11.739-14.782-11.817-24.076-10.535-11.076 1.501-22.737 5.168-32.331-4.528 5.307-3.164 19.85-15.605 17.927-2.644 10.616 0.52 20.872 0.863 31.27-0.401 4.147-0.52 18.087-5.209 21.854-3.064 1.603 0.901 3.286 8.714 4.969 11.116-2.965 0-6.15 1.484-9.095 1.201 6.89 8.815 13.74 1.883 22.495-2.142-9.635-5.87-3.907-19.89 5.509-8.494 7.732 9.375-1.923 16.186-11.737 21.634 9.915 12.4 16.024 13.5 25.34-0.502 1.542 8.653 8.492 5.208 15.765 4.567v2.163c-3.187-0.08-6.612 1.764-9.796 1.423 7.431 11.818 2.705 14.523 13.301 18.389 8.436 3.064 32.513 0.2 35.478 8.133-16.867-3.265-37.201-4.065-52.406-11.719-6.57-3.285-14.36-13.74-20.912-6.932-6.73 6.932 4.787 18.109 10.677 21.515h-1.38a394.85 394.85 0 0 0 82.57 8.734c18.309 0 36.299-1.36 53.928-3.765-6.092-3.205-1.583-5.388-6.03-8.673-8.493-6.23-23.578-11.46-33.713-15.406 12.86 0.04 43.99-12.06 49.98 5.97-4.166 0.641-8.272 1.282-12.44 1.923 7.731 5.13 16.387 9.294 25.48 12.34 81.83-16.206 154.644-57.73 210.032-116.002a42.452 42.452 0 0 1-1.177 0.01m72.475-157.248c0.762 1.582 2.483 2.084 3.187 3.386 1.502 2.746 1.14 4.588 2.983 6.93 2.006 2.523 4.648 3.144 6.854 5.13 0.9 0.8 1.4 1.542 1.801 2.284a390.567 390.567 0 0 0 15.686-57.07c-0.1-0.14-0.159-0.34-0.322-0.481-0.982-0.742-7.233-1.681-8.512-1.724-4.568-0.159-7.934 2.844-11.22 5.69-3.285 2.885-7.212 6.73-9.574 10.458-2.523 4.007-0.961 8.093-0.762 12.66 0.14 3.824-1.723 9.292-0.12 12.737m5.13-205.344c-7.695 6.69-16.749 15.643-22.238 24.298-5.847 9.234-2.223 18.727-1.804 29.286 0.361 8.915-4.005 21.573-0.22 29.565 1.742 3.646 5.729 4.868 7.352 7.853 3.485 6.35 2.723 10.637 6.99 16.087 4.567 5.847 10.717 7.29 15.845 11.878 5.327 4.828 5.168 8.615 8.572 14.785 2.483 4.507 8.272 12.017 13.781 15.966a398.2 398.2 0 0 0 4.568-60.036c0-35.296-4.689-69.512-13.4-102.083-7.43 1.885-13.519 7.25-19.447 12.4"  horiz-adv-x="1024" />

    


  </font>
</defs>
</svg>
